<svg width="28" height="28" viewBox="0 0 28 28" fill="none" xmlns="http://www.w3.org/2000/svg">
<path d="M11.6668 10.5C10.3835 10.5 9.3335 11.5733 9.3335 12.8916C9.3335 13.5566 9.59016 14.14 10.0218 14.5833L14.0002 18.6666L17.9902 14.5833C18.4102 14.1516 18.6668 13.545 18.6668 12.8916C18.6668 11.5733 17.6168 10.5 16.3335 10.5C15.7035 10.5 15.1085 10.7683 14.6885 11.2L14.0002 11.9L13.3235 11.2116C13.1088 10.9885 12.8516 10.8106 12.5671 10.6884C12.2826 10.5662 11.9765 10.5021 11.6668 10.5ZM23.3335 4.66663C24.6168 4.66663 25.6668 5.71663 25.6668 6.99996V21C25.6668 22.2833 24.6168 23.3333 23.3335 23.3333H4.66683C3.3835 23.3333 2.3335 22.2833 2.3335 21V6.99996C2.3335 5.71663 3.3835 4.66663 4.66683 4.66663H23.3335ZM19.4835 9.40329L23.3335 6.99996H4.66683L8.51683 9.40329C8.0385 9.85829 7.64183 10.4066 7.38516 11.025L4.66683 9.33329V21H23.3335V9.33329L20.6152 11.025C20.3585 10.4066 19.9618 9.85829 19.4835 9.40329Z" fill="#F8F8F8"/>
</svg>
