<svg width="137" height="40" viewBox="0 0 137 40" fill="none" xmlns="http://www.w3.org/2000/svg">
<path d="M21.3139 0C9.54291 0 0 8.95453 0 20.0001C0 31.0462 9.54291 40 21.3139 40C33.0863 40 42.6281 31.0462 42.6281 20.0001C42.6281 8.95529 33.0863 0.00100435 21.3137 0.00100435L21.3139 0ZM31.0886 28.8459C30.9976 28.9858 30.8781 29.1075 30.737 29.2039C30.5959 29.3004 30.4359 29.3699 30.2661 29.4082C30.0964 29.4466 29.9202 29.4532 29.7478 29.4277C29.5753 29.4021 29.4099 29.3449 29.261 29.2592C24.2568 26.3908 17.9569 25.7412 10.5378 27.3319C10.1942 27.4052 9.83372 27.3475 9.53548 27.1715C9.23725 26.9955 9.02568 26.7156 8.94728 26.3933C8.90821 26.2337 8.90307 26.0685 8.93216 25.907C8.96125 25.7456 9.024 25.5911 9.11681 25.4524C9.20962 25.3138 9.33067 25.1937 9.47303 25.099C9.61539 25.0043 9.77625 24.9369 9.94641 24.9006C18.0655 23.1598 25.0298 23.9093 30.6481 27.1313C30.7971 27.2167 30.9267 27.3288 31.0294 27.4613C31.1322 27.5937 31.2061 27.7438 31.247 27.9031C31.2879 28.0624 31.2949 28.2277 31.2677 28.3895C31.2404 28.5513 31.1795 28.7065 31.0883 28.8462L31.0886 28.8459ZM33.6974 23.4001C33.2161 24.1338 32.1931 24.3655 31.4115 23.9141C25.6827 20.6098 16.9492 19.6526 10.1728 21.583C9.75096 21.7028 9.29572 21.6607 8.90695 21.4659C8.51818 21.2711 8.22763 20.9395 8.09905 20.544C7.9719 20.1482 8.01713 19.7213 8.22482 19.3568C8.43252 18.9923 8.78575 18.7199 9.2071 18.5993C16.9479 16.3953 26.5708 17.4629 33.15 21.2566C33.9313 21.708 34.1783 22.6682 33.6972 23.4004L33.6974 23.4001ZM33.9211 17.7293C27.0521 13.9007 15.7181 13.5487 9.15947 15.4168C8.10628 15.7166 6.99262 15.1587 6.67367 14.1704C6.52022 13.6956 6.57397 13.1831 6.82309 12.7455C7.07222 12.3079 7.49633 11.981 8.00219 11.8368C15.531 9.69198 28.047 10.1063 35.9558 14.5121C36.1812 14.6372 36.3781 14.8029 36.5352 14.9995C36.6922 15.1961 36.8064 15.4199 36.8712 15.658C36.936 15.8961 36.9501 16.1439 36.9127 16.3871C36.8752 16.6304 36.787 16.8643 36.6531 17.0755C36.0933 17.9643 34.8665 18.2573 33.9222 17.7295L33.9211 17.7293ZM57.9882 18.463C54.3079 17.6394 53.654 17.0616 53.654 15.8471C53.654 14.6997 54.8043 13.9276 56.517 13.9276C58.1766 13.9276 59.8208 14.5141 61.5464 15.7211C61.5973 15.7575 61.6634 15.7721 61.7271 15.7625C61.7591 15.7582 61.7899 15.7478 61.8175 15.732C61.8451 15.7162 61.8689 15.6952 61.8876 15.6704L63.6844 13.2936C63.7199 13.2465 63.735 13.1884 63.7264 13.1313C63.7179 13.0741 63.6865 13.0222 63.6386 12.986C61.5847 11.4401 59.2736 10.6885 56.5706 10.6885C52.5976 10.6885 49.8209 12.926 49.8209 16.1276C49.8209 19.5607 52.2157 20.7765 56.3544 21.7148C59.8744 22.4758 60.4697 23.1134 60.4697 24.2533C60.4697 25.5168 59.2683 26.3024 57.3342 26.3024C55.1861 26.3024 53.4324 25.622 51.4727 24.0311C51.4238 23.9924 51.361 23.9728 51.2971 23.9763C51.2653 23.9784 51.2343 23.9864 51.2058 23.9999C51.1774 24.0134 51.1521 24.0321 51.1315 24.0549L49.1158 26.3047C49.0754 26.3498 49.0551 26.4079 49.0594 26.4667C49.0637 26.5256 49.0922 26.5805 49.1389 26.62C51.4192 28.5308 54.2239 29.5387 57.2526 29.5387C61.5339 29.5387 64.3004 27.3437 64.3004 23.9452C64.3079 21.0775 62.4782 19.4894 57.996 18.4662L57.9882 18.463ZM73.9872 15.0572C72.1318 15.0572 70.6099 15.7432 69.3525 17.1488V15.5669C69.3525 15.4419 69.2455 15.3402 69.1133 15.3402H65.8173C65.7536 15.3405 65.6926 15.3646 65.6477 15.407C65.6029 15.4495 65.5778 15.5069 65.578 15.5667V33.1451C65.578 33.2691 65.6851 33.3718 65.8173 33.3718H69.1133C69.177 33.3713 69.2379 33.3472 69.2827 33.3047C69.3276 33.2622 69.3526 33.2048 69.3525 33.1451V27.5968C70.6099 28.9175 72.1318 29.5648 73.987 29.5648C77.436 29.5648 80.9279 27.074 80.9279 22.3119C80.933 17.5488 77.4408 15.057 73.9896 15.057L73.9872 15.0572ZM77.0949 22.3119C77.0949 24.7356 75.5041 26.429 73.2236 26.429C70.9711 26.429 69.2709 24.6593 69.2709 22.3119C69.2709 19.9642 70.9711 18.1948 73.2236 18.1948C75.4659 18.1948 77.0949 19.9258 77.0949 22.3119ZM89.8741 15.0572C85.4329 15.0572 81.9536 18.2661 81.9536 22.3639C81.9536 26.4172 85.4099 29.5912 89.8206 29.5912C94.2771 29.5912 97.7666 26.3933 97.7666 22.3119C97.7666 18.2443 94.3001 15.058 89.8741 15.058V15.0572ZM89.8741 26.4528C87.5122 26.4528 85.7307 24.6711 85.7307 22.3106C85.7307 19.9394 87.4512 18.2184 89.8206 18.2184C92.1978 18.2184 93.9895 19.9994 93.9895 22.3624C93.9895 24.7334 92.2588 26.4528 89.8741 26.4528ZM107.25 15.3402H103.623V11.8614C103.623 11.7366 103.516 11.6349 103.384 11.6349H100.088C100.024 11.635 99.9622 11.6589 99.9169 11.7013C99.8716 11.7438 99.846 11.8013 99.8457 11.8614V15.3402H98.2627C98.199 15.3405 98.138 15.3646 98.0932 15.407C98.0483 15.4495 98.0233 15.5069 98.0235 15.5667V18.2242C98.0233 18.284 98.0483 18.3414 98.0932 18.3839C98.138 18.4264 98.199 18.4505 98.2627 18.4509H99.8457V25.3282C99.8457 28.1057 101.32 29.5148 104.229 29.5148C105.409 29.5148 106.389 29.2853 107.313 28.7935C107.351 28.7743 107.382 28.7459 107.403 28.7114C107.425 28.6769 107.436 28.6376 107.436 28.5976V26.0659C107.435 26.0276 107.425 25.9899 107.405 25.9565C107.385 25.9231 107.356 25.8951 107.321 25.8751C107.286 25.8542 107.246 25.8423 107.205 25.8406C107.164 25.8388 107.123 25.8474 107.087 25.8653C106.453 26.1641 105.84 26.3024 105.152 26.3024C104.096 26.3024 103.623 25.851 103.623 24.8431V18.4524H107.25C107.313 18.4521 107.374 18.428 107.419 18.3855C107.464 18.343 107.489 18.2855 107.489 18.2257V15.5682C107.49 15.5385 107.485 15.509 107.473 15.4813C107.462 15.4537 107.444 15.4285 107.422 15.4073C107.4 15.3861 107.374 15.3693 107.344 15.358C107.315 15.3467 107.284 15.3411 107.252 15.3414L107.25 15.3402ZM119.884 15.3538V14.9264C119.884 13.6695 120.398 13.109 121.548 13.109C122.236 13.109 122.788 13.2371 123.407 13.4304C123.443 13.4418 123.482 13.445 123.519 13.4395C123.557 13.4341 123.593 13.4202 123.624 13.3992C123.655 13.3781 123.68 13.3503 123.697 13.3183C123.714 13.2863 123.723 13.2508 123.723 13.215L123.722 10.6095C123.723 10.5608 123.707 10.5132 123.676 10.474C123.645 10.4348 123.602 10.4061 123.552 10.3923C122.9 10.21 122.065 10.0232 120.813 10.0232C117.772 10.0232 116.16 11.6314 116.16 14.6723V15.3266H114.577C114.513 15.3268 114.452 15.3507 114.407 15.3931C114.361 15.4355 114.336 15.493 114.336 15.5531V18.2242C114.336 18.349 114.445 18.4509 114.577 18.4509H116.16V29.0561C116.16 29.1826 116.27 29.2831 116.402 29.2831H119.696C119.831 29.2831 119.938 29.1826 119.938 29.0561V18.4517H123.015L127.728 29.0561C127.194 30.1692 126.667 30.3911 125.949 30.3911C125.369 30.3911 124.756 30.2289 124.132 29.9065C124.073 29.8785 124.005 29.8725 123.941 29.8897C123.91 29.8996 123.881 29.9156 123.856 29.9366C123.832 29.9575 123.812 29.983 123.799 30.0115L122.681 32.3115C122.656 32.3637 122.652 32.4232 122.671 32.4777C122.691 32.5323 122.732 32.5779 122.786 32.6052C123.951 33.1975 125.002 33.4506 126.303 33.4506C128.736 33.4506 130.083 32.3855 131.266 29.5244L136.983 15.6633C136.997 15.6291 137.003 15.5919 136.999 15.5551C136.994 15.5183 136.98 15.4832 136.957 15.4529C136.936 15.4226 136.907 15.3977 136.872 15.3806C136.838 15.3634 136.8 15.3544 136.761 15.3545H133.33C133.28 15.3542 133.231 15.3687 133.19 15.396C133.149 15.4232 133.118 15.4618 133.101 15.5064L129.586 24.9245L125.738 15.5001C125.721 15.4574 125.69 15.4207 125.65 15.3947C125.61 15.3686 125.563 15.3546 125.514 15.3545H119.884V15.3538ZM112.559 15.3402H109.263C109.199 15.3405 109.138 15.3644 109.093 15.4068C109.047 15.4492 109.022 15.5067 109.021 15.5667V29.0561C109.021 29.1826 109.131 29.2831 109.263 29.2831H112.559C112.692 29.2831 112.801 29.1826 112.801 29.0561V15.5677C112.801 15.5379 112.795 15.5083 112.783 15.4807C112.771 15.4532 112.753 15.4281 112.73 15.407C112.708 15.386 112.681 15.3693 112.652 15.3579C112.622 15.3466 112.591 15.3408 112.559 15.3409V15.3402ZM110.93 9.19759C109.624 9.19759 108.566 10.1894 108.566 11.4142C108.566 11.7055 108.627 11.9941 108.746 12.2633C108.865 12.5324 109.039 12.777 109.258 12.9831C109.478 13.1891 109.738 13.3525 110.025 13.464C110.312 13.5755 110.62 13.6328 110.93 13.6328C112.236 13.6328 113.292 12.64 113.292 11.4142C113.292 10.8264 113.043 10.2627 112.6 9.84705C112.157 9.43139 111.557 9.19779 110.93 9.19759Z" fill="black"/>
</svg>
