<svg width="318" height="93" viewBox="0 0 318 93" fill="none" xmlns="http://www.w3.org/2000/svg">
<path d="M49.4732 0C22.1507 0 0 20.8193 0 46.5003C0 72.1824 22.1507 93 49.4732 93C76.7989 93 98.9471 72.1824 98.9471 46.5003C98.9471 20.821 76.7989 0.00233511 49.4726 0.00233511L49.4732 0ZM72.1618 67.0668C71.9506 67.392 71.6734 67.6748 71.3458 67.8992C71.0182 68.1235 70.6468 68.2849 70.2528 68.3742C69.8587 68.4634 69.4499 68.4788 69.0495 68.4193C68.6492 68.3599 68.2653 68.2268 67.9197 68.0277C56.304 61.3586 41.681 59.8484 24.4599 63.5466C23.6625 63.7171 22.8257 63.583 22.1335 63.1738C21.4412 62.7646 20.9501 62.1138 20.7681 61.3645C20.6774 60.9934 20.6655 60.6092 20.733 60.2338C20.8006 59.8585 20.9462 59.4993 21.1616 59.1769C21.3771 58.8545 21.6581 58.5753 21.9885 58.3551C22.3189 58.1349 22.6923 57.9782 23.0873 57.8939C41.9331 53.8466 58.0984 55.5891 71.1395 63.0802C71.4852 63.2788 71.786 63.5395 72.0245 63.8474C72.263 64.1553 72.4346 64.5044 72.5295 64.8747C72.6244 65.245 72.6407 65.6293 72.5775 66.0055C72.5143 66.3818 72.3728 66.7426 72.1612 67.0674L72.1618 67.0668ZM78.2174 54.4052C77.1001 56.111 74.7257 56.6499 72.9114 55.6002C59.6138 47.9177 39.3419 45.6923 23.6127 50.1804C22.6336 50.459 21.5769 50.3611 20.6745 49.9082C19.7721 49.4553 19.0977 48.6844 18.7993 47.7648C18.5041 46.8446 18.6091 45.852 19.0912 45.0045C19.5733 44.157 20.3932 43.5237 21.3712 43.2434C39.3388 38.119 61.6752 40.6012 76.9467 49.4215C78.7603 50.4711 79.3335 52.7035 78.2168 54.4058L78.2174 54.4052ZM78.7367 41.2206C62.7926 32.3191 36.4843 31.5007 21.2607 35.844C18.816 36.541 16.231 35.2439 15.4907 32.9461C15.1345 31.8423 15.2593 30.6507 15.8375 29.6333C16.4158 28.6158 17.4002 27.8559 18.5744 27.5205C36.0501 22.5338 65.1018 23.4971 83.4595 33.7406C83.9827 34.0316 84.4396 34.4166 84.8043 34.8738C85.1689 35.331 85.434 35.8513 85.5843 36.4049C85.7347 36.9585 85.7673 37.5346 85.6805 38.1001C85.5936 38.6656 85.3889 39.2094 85.078 39.7004C83.7787 41.767 80.931 42.4483 78.7392 41.2212L78.7367 41.2206ZM134.6 42.9264C126.058 41.0116 124.54 39.6683 124.54 36.8446C124.54 34.1767 127.21 32.3816 131.186 32.3816C135.038 32.3816 138.854 33.7453 142.86 36.5515C142.978 36.6362 143.131 36.67 143.279 36.6479C143.353 36.6379 143.425 36.6137 143.489 36.5769C143.553 36.5401 143.608 36.4913 143.652 36.4336L147.822 30.9076C147.905 30.798 147.94 30.6631 147.92 30.5302C147.9 30.3974 147.827 30.2766 147.716 30.1924C142.948 26.5981 137.584 24.8509 131.31 24.8509C122.088 24.8509 115.643 30.0529 115.643 37.4967C115.643 45.4787 121.201 48.3053 130.808 50.4869C138.978 52.2563 140.36 53.7386 140.36 56.3889C140.36 59.3265 137.572 61.1531 133.082 61.1531C128.096 61.1531 124.026 59.5711 119.477 55.8723C119.363 55.7823 119.217 55.7368 119.069 55.745C118.995 55.7497 118.923 55.7683 118.857 55.7997C118.791 55.8311 118.733 55.8746 118.685 55.9277L114.006 61.1584C113.912 61.2633 113.865 61.3983 113.875 61.5351C113.885 61.6719 113.951 61.7997 114.06 61.8916C119.352 66.3342 125.863 68.6774 132.893 68.6774C142.83 68.6774 149.252 63.5741 149.252 55.6726C149.269 49.0053 145.022 45.3129 134.618 42.934L134.6 42.9264ZM171.737 35.008C167.43 35.008 163.897 36.6029 160.979 39.8709V36.1931C160.979 35.9024 160.73 35.6659 160.424 35.6659H152.773C152.625 35.6667 152.484 35.7226 152.379 35.8213C152.275 35.92 152.217 36.0535 152.218 36.1925V77.0623C152.218 77.3506 152.466 77.5894 152.773 77.5894H160.424C160.571 77.5883 160.713 77.5323 160.817 77.4335C160.921 77.3347 160.979 77.2012 160.979 77.0623V64.1625C163.897 67.2332 167.43 68.7382 171.736 68.7382C179.742 68.7382 187.847 62.9471 187.847 51.8751C187.859 40.8009 179.753 35.0074 171.742 35.0074L171.737 35.008ZM178.95 51.8751C178.95 57.5103 175.258 61.4474 169.964 61.4474C164.736 61.4474 160.789 57.3329 160.789 51.8751C160.789 46.4168 164.736 42.3029 169.964 42.3029C175.169 42.3029 178.95 46.3275 178.95 51.8751ZM208.613 35.008C198.304 35.008 190.228 42.4687 190.228 51.996C190.228 61.4199 198.251 68.7995 208.489 68.7995C218.833 68.7995 226.933 61.3645 226.933 51.8751C226.933 42.4179 218.886 35.0098 208.613 35.0098V35.008ZM208.613 61.5028C203.131 61.5028 198.995 57.3603 198.995 51.8722C198.995 46.359 202.989 42.3578 208.489 42.3578C214.007 42.3578 218.165 46.4985 218.165 51.9925C218.165 57.5051 214.148 61.5028 208.613 61.5028ZM248.945 35.6659H240.527V27.5777C240.527 27.2876 240.278 27.0511 239.971 27.0511H232.32C232.172 27.0514 232.029 27.107 231.924 27.2056C231.819 27.3043 231.759 27.438 231.759 27.5777V35.6659H228.084C227.936 35.6667 227.795 35.7226 227.691 35.8213C227.587 35.92 227.529 36.0535 227.529 36.1925V42.3712C227.529 42.5103 227.587 42.6438 227.691 42.7426C227.795 42.8414 227.936 42.8974 228.084 42.8984H231.759V58.8881C231.759 65.3458 235.18 68.622 241.932 68.622C244.673 68.622 246.947 68.0884 249.092 66.9448C249.179 66.9001 249.251 66.8342 249.301 66.754C249.351 66.6738 249.377 66.5824 249.376 66.4894V60.6032C249.376 60.5141 249.351 60.4266 249.304 60.3489C249.258 60.2713 249.191 60.2061 249.11 60.1595C249.03 60.111 248.937 60.0833 248.841 60.0793C248.746 60.0753 248.651 60.0951 248.566 60.1368C247.095 60.8315 245.672 61.1531 244.076 61.1531C241.625 61.1531 240.526 60.1035 240.526 57.7602V42.9019H248.944C249.092 42.9011 249.234 42.8451 249.338 42.7463C249.442 42.6475 249.5 42.5138 249.5 42.3747V36.196C249.502 36.1271 249.49 36.0584 249.463 35.9941C249.437 35.9298 249.396 35.8712 249.345 35.8219C249.294 35.7727 249.232 35.7337 249.165 35.7074C249.097 35.681 249.024 35.668 248.951 35.6689L248.945 35.6659ZM278.271 35.6975V34.7039C278.271 31.7815 279.464 30.4785 282.134 30.4785C283.731 30.4785 285.012 30.7762 286.448 31.2257C286.532 31.2523 286.622 31.2595 286.709 31.2469C286.797 31.2342 286.88 31.2021 286.952 31.153C287.023 31.104 287.082 31.0396 287.122 30.9651C287.161 30.8906 287.182 30.8082 287.181 30.7248L287.18 24.667C287.182 24.5538 287.144 24.4433 287.072 24.3521C287.001 24.261 286.9 24.1943 286.784 24.162C285.272 23.7382 283.334 23.3039 280.428 23.3039C273.368 23.3039 269.628 27.043 269.628 34.1131V35.6344H265.954C265.805 35.6347 265.663 35.6903 265.557 35.7889C265.452 35.8876 265.393 36.0213 265.392 36.161V42.3712C265.392 42.6614 265.647 42.8984 265.954 42.8984H269.628V67.5554C269.628 67.8496 269.883 68.0832 270.189 68.0832H277.834C278.147 68.0832 278.395 67.8496 278.395 67.5554V42.9001H285.538L296.479 67.5554C295.238 70.1433 294.015 70.6594 292.349 70.6594C291.002 70.6594 289.579 70.2823 288.132 69.5327C287.994 69.4675 287.836 69.4535 287.688 69.4936C287.615 69.5167 287.548 69.5537 287.491 69.6025C287.434 69.6512 287.388 69.7105 287.357 69.7767L284.764 75.1241C284.704 75.2456 284.696 75.3838 284.741 75.5107C284.786 75.6377 284.881 75.7437 285.006 75.8071C287.712 77.1843 290.151 77.7727 293.171 77.7727C298.818 77.7727 301.943 75.2963 304.691 68.6442L317.96 36.4173C317.994 36.3376 318.007 36.2511 317.997 36.1656C317.986 36.0801 317.953 35.9984 317.901 35.9281C317.851 35.8575 317.783 35.7997 317.704 35.7598C317.624 35.7199 317.535 35.699 317.445 35.6992H309.482C309.365 35.6986 309.251 35.7323 309.156 35.7957C309.06 35.859 308.988 35.9488 308.95 36.0524L300.791 57.9493L291.859 36.0378C291.819 35.9385 291.748 35.853 291.655 35.7926C291.562 35.7321 291.452 35.6996 291.339 35.6992H278.271V35.6975ZM261.269 35.6659H253.618C253.47 35.6666 253.327 35.7222 253.222 35.8208C253.117 35.9194 253.058 36.053 253.057 36.1925V67.5554C253.057 67.8496 253.311 68.0832 253.618 68.0832H261.269C261.576 68.0832 261.83 67.8496 261.83 67.5554V36.1948C261.83 36.1255 261.816 36.0568 261.788 35.9927C261.76 35.9286 261.718 35.8704 261.666 35.8214C261.614 35.7724 261.552 35.7336 261.484 35.7072C261.416 35.6808 261.342 35.6674 261.269 35.6677V35.6659ZM257.487 21.3844C254.457 21.3844 251.999 23.6903 251.999 26.538C251.999 27.2154 252.141 27.8862 252.417 28.5121C252.693 29.1379 253.097 29.7066 253.607 30.1856C254.116 30.6646 254.721 31.0446 255.387 31.3038C256.053 31.563 256.767 31.6963 257.487 31.6962C260.518 31.6962 262.97 29.388 262.97 26.538C262.97 25.1714 262.392 23.8608 261.364 22.8944C260.336 21.928 258.941 21.3849 257.487 21.3844Z" fill="#2F9B55"/>
</svg>
