<svg width="21" height="24" viewBox="0 0 21 24" fill="none" xmlns="http://www.w3.org/2000/svg">
<path d="M6.9375 6.65625V3.98438C6.9375 3.27575 7.16687 2.59615 7.57515 2.09507C7.98344 1.594 8.53718 1.3125 9.11458 1.3125H17.8229C18.4003 1.3125 18.9541 1.594 19.3623 2.09507C19.7706 2.59615 20 3.27575 20 3.98438V20.0156C20 20.7243 19.7706 21.4039 19.3623 21.9049C18.9541 22.406 18.4003 22.6875 17.8229 22.6875H9.55C8.34771 22.6875 6.9375 21.4912 6.9375 20.0156V17.3438" stroke="black" stroke-width="1.5" stroke-linecap="round" stroke-linejoin="round"/>
<path d="M12.1493 16.75L16.4375 11.4063L12.1493 6.0625M1 11.4063H15.5799" stroke="black" stroke-width="1.5" stroke-linecap="round" stroke-linejoin="round"/>
</svg>
